<?xml version="1.0" standalone="no"?><!DOCTYPE svg PUBLIC "-//W3C//DTD SVG 1.1//EN" "http://www.w3.org/Graphics/SVG/1.1/DTD/svg11.dtd"><svg t="1721145528659" class="icon" viewBox="0 0 1139 1024" version="1.1" xmlns="http://www.w3.org/2000/svg" p-id="17411" width="17.796875" height="16" xmlns:xlink="http://www.w3.org/1999/xlink"><path d="M1120.670788 322.038913l-246.301272-235.217715a61.575318 61.575318 0 0 0-43.102723-17.241089h-48.028748v61.575318h31.403413V295.561526c0 83.126679 91.131471 89.899964 91.13147 89.899964h169.947878v549.251836a29.556153 29.556153 0 0 1-30.787659 29.556153H91.747225a30.787659 30.787659 0 0 1-30.171906-29.556153V158.248567c0-27.09314 30.171906-27.09314 30.171906-27.09314h184.725954v-61.575318h-184.725954s-91.747224 5.541779-91.747224 88.668458v776.464759a91.131471 91.131471 0 0 0 91.747224 89.284211h955.033181s91.747224-3.694519 91.747224-89.284211V364.525882a61.575318 61.575318 0 0 0-17.856842-42.486969z m-212.434847 3.694519s-30.787659 0-30.787659-30.171906v-123.150636l159.480073 155.169801z" p-id="17412"></path><path d="M232.754703 342.358768c78.200654 0 105.293794 25.861634 105.293794 70.195862a61.575318 61.575318 0 0 1-44.949982 61.575318 61.575318 61.575318 0 0 1 54.18628 61.575318c0 51.723267-33.866425 75.121888-104.062288 75.121888H129.923922V342.358768z m-52.33902 109.604066h48.028748c35.097931 0 61.575318-11.083557 61.575318-34.482179s-20.319855-33.250672-61.575318-33.250671h-48.028748z m0 113.298584h52.33902c42.486969 0 61.575318-10.467804 61.575318-36.329437s-26.477387-35.097931-61.575318-35.097931h-52.33902zM518.464178 479.671727v-6.773285c0-14.778076-11.083557-28.324646-41.871216-28.324647a48.644501 48.644501 0 0 0-47.412995 24.630128l-44.949982-6.157532a95.441743 95.441743 0 0 1 94.210237-56.03354c61.575318 0 88.668458 25.861634 88.668458 67.117097v94.210236c0 11.083557 6.773285 13.54657 21.551361 10.467804v29.556153a103.446534 103.446534 0 0 1-30.787659 4.310272 43.102723 43.102723 0 0 1-33.866425-14.162323 89.899964 89.899964 0 0 1 0-12.315063 110.219819 110.219819 0 0 1-73.890382 26.477386c-32.019165 0-68.348603-16.009583-68.348602-51.107514-3.078766-48.028748 44.949982-72.658875 136.697205-81.895172z m-61.575318 95.441742a105.909547 105.909547 0 0 0 61.575318-20.319855v-38.176697c-46.181488 4.310272-90.515717 14.778076-90.515717 39.408204 3.078766 13.54657 11.083557 19.088349 30.171906 19.088348zM653.314125 552.330602a50.491761 50.491761 0 0 0 49.260254 25.24588c22.167114 0 36.329438-10.467804 36.329438-23.398621s-20.935608-21.551361-47.412995-29.556152c-52.33902-14.162323-76.969147-30.787659-76.969148-61.575318s33.866425-56.649292 85.589692-56.649293a86.821198 86.821198 0 0 1 86.821198 49.260255l-45.565735 6.773285a43.718476 43.718476 0 0 0-41.255463-20.319855c-22.782868 0-36.945191 9.852051-36.945191 22.167114s22.782868 22.167114 41.871217 27.09314c57.265046 12.930817 85.589692 28.940399 85.589692 61.575318s-35.713684 61.575318-89.899965 61.575318a98.520509 98.520509 0 0 1-93.594483-52.33902zM923.62977 407.012851a92.97873 92.97873 0 0 1 98.520509 99.752015v19.704102h-150.859529a48.644501 48.644501 0 0 0 54.18628 48.644501 56.649292 56.649292 0 0 0 51.107514-24.630127l44.949982 6.773285a96.673249 96.673249 0 0 1-96.057496 55.417786 96.057496 96.057496 0 0 1-103.446534-102.830781 96.057496 96.057496 0 0 1 101.599274-102.830781z m50.491761 84.358186a48.028748 48.028748 0 0 0-50.491761-46.797242 48.644501 48.644501 0 0 0-51.723267 46.797242zM452.578588 655.161383a94.210236 94.210236 0 0 1 89.899964 54.802033l-49.260254 7.389038a44.949982 44.949982 0 0 0-41.871216-24.630127c-40.63971 0-56.649292 44.334229-61.575318 87.436951a76.969147 76.969147 0 0 1 65.269837-30.787659 81.895173 81.895173 0 0 1 88.668458 84.973939c0 55.417786-34.482178 89.899964-100.367769 89.899964s-98.520509-38.79245-98.520508-115.761598c0-94.82599 35.097931-153.322542 107.756806-153.322541z m-6.157532 232.754701a47.412995 47.412995 0 0 0 49.876008-50.49176 48.028748 48.028748 0 0 0-49.876008-50.491761 50.491761 50.491761 0 1 0 0 100.983521zM699.495613 660.087408h71.427369v165.637605h33.866425v39.408204h-33.866425v54.18628h-49.260255v-54.18628H582.502509v-30.787659z m22.167114 165.637605v-119.456116l-79.43216 119.456116z" fill="#F36018" p-id="17413"></path><path d="M539.399786 136.081453h61.575318v206.277315h-61.575318z" fill="#9E5937" p-id="17414"></path><path d="M727.204506 157.017061H412.554632L569.571692 0l157.632814 157.017061z" fill="#9E5937" p-id="17415"></path></svg>